<svg width="24" height="24" viewBox="0 0 24 24" fill="none" xmlns="http://www.w3.org/2000/svg">
<path d="M10.1419 22.4569C11.4177 23.7323 12.5826 23.7224 13.8486 22.4569L15.3953 20.9196C15.556 20.7691 15.6966 20.7087 15.9074 20.7087H18.0773C19.8751 20.7087 20.7087 19.885 20.7087 18.0773V15.9074C20.7087 15.6966 20.7691 15.556 20.9196 15.3953L22.4466 13.8481C23.7323 12.5826 23.722 11.4177 22.4466 10.1419L20.9196 8.59472C20.7691 8.44472 20.7087 8.29386 20.7087 8.09286V5.91315C20.7087 4.12515 19.885 3.28172 18.0773 3.28172H15.9074C15.6966 3.28172 15.556 3.23115 15.3953 3.08029L13.8481 1.54386C12.5826 0.268003 11.4177 0.278288 10.1419 1.54386L8.59472 3.08072C8.44472 3.23115 8.29386 3.28129 8.09286 3.28129H5.91315C4.11529 3.28129 3.28172 4.105 3.28172 5.91272V8.09286C3.28172 8.29386 3.23115 8.44429 3.08029 8.59515L1.54386 10.1423C0.268003 11.4177 0.278288 12.5826 1.54386 13.8486L3.08072 15.3953C3.23115 15.556 3.28129 15.6966 3.28129 15.9074V18.0773C3.28129 19.8751 4.11529 20.7087 5.91272 20.7087H8.09286C8.29386 20.7087 8.44429 20.7691 8.59515 20.9196L10.1419 22.4569ZM11.2669 21.3314L9.37857 19.4329C9.15743 19.2023 8.92643 19.1114 8.61529 19.1114H5.91315C5.01915 19.1114 4.87857 18.9713 4.87857 18.0773V15.3751C4.87857 15.0739 4.78815 14.8429 4.567 14.6217L2.66843 12.7334C2.03586 12.0906 2.03586 11.9097 2.66843 11.2669L4.567 9.37857C4.78815 9.15743 4.87857 8.92643 4.87857 8.61529V5.91315C4.87857 5.00886 5.00929 4.87857 5.91315 4.87857H8.61529C8.92643 4.87857 9.15743 4.798 9.37815 4.567L11.2669 2.66843C11.9097 2.03586 12.0906 2.03586 12.7334 2.66843L14.6217 4.567C14.8429 4.79843 15.0739 4.87857 15.3751 4.87857H18.0773C18.9713 4.87857 19.1119 5.01915 19.1119 5.91315V8.61529C19.1119 8.92643 19.2121 9.15743 19.4333 9.37815L21.3319 11.2669C21.9644 11.9097 21.9644 12.0906 21.3319 12.7334L19.4333 14.6217C19.2121 14.8429 19.1119 15.0739 19.1119 15.3751V18.0773C19.1119 18.9713 18.9713 19.1119 18.0773 19.1119H15.3751C15.0739 19.1119 14.8429 19.2019 14.6217 19.4333L12.7334 21.3319C12.0906 21.9644 11.9097 21.964 11.2669 21.3314ZM10.4333 16.8121C10.7247 16.8121 10.9454 16.6913 11.0963 16.5104L16.6711 8.716C16.7813 8.55529 16.8417 8.37443 16.8417 8.20386C16.8417 7.76157 16.5001 7.41015 16.0381 7.41015C15.7069 7.41015 15.526 7.52072 15.325 7.81215L10.4029 14.7421L7.86143 11.9397C7.69086 11.749 7.50015 11.6689 7.249 11.6689C6.757 11.6689 6.40515 12.0001 6.40515 12.4621C6.40515 12.6631 6.47543 12.8539 6.61643 12.9944L9.81057 16.5503C9.961 16.711 10.1521 16.8121 10.4333 16.8121Z" fill="white"/>
</svg>
