<svg width="22" height="22" viewBox="0 0 22 22" fill="none" xmlns="http://www.w3.org/2000/svg">
<path fill-rule="evenodd" clip-rule="evenodd" d="M10.8 0H10.7C10.036 0 9.463 3.72529e-08 9.004 0.062C8.513 0.128 8.041 0.277 7.659 0.659C7.277 1.041 7.128 1.513 7.062 2.004C7 2.463 7 3.036 7 3.701V6.128C6.7591 6.04299 6.50546 5.9997 6.25 6H3.25C2.95453 6 2.66194 6.0582 2.38896 6.17127C2.11598 6.28434 1.86794 6.45008 1.65901 6.65901C1.45008 6.86794 1.28434 7.11598 1.17127 7.38896C1.0582 7.66195 1 7.95453 1 8.25V20H0.75C0.551088 20 0.360322 20.079 0.21967 20.2197C0.0790177 20.3603 0 20.5511 0 20.75C0 20.9489 0.0790177 21.1397 0.21967 21.2803C0.360322 21.421 0.551088 21.5 0.75 21.5H20.75C20.9489 21.5 21.1397 21.421 21.2803 21.2803C21.421 21.1397 21.5 20.9489 21.5 20.75C21.5 20.5511 21.421 20.3603 21.2803 20.2197C21.1397 20.079 20.9489 20 20.75 20H20.5V13.25C20.5 12.6533 20.2629 12.081 19.841 11.659C19.419 11.2371 18.8467 11 18.25 11H15.25C14.987 11 14.735 11.045 14.5 11.128V3.701C14.5 3.036 14.5 2.463 14.438 2.004C14.372 1.513 14.223 1.041 13.841 0.659C13.459 0.277 12.988 0.128 12.496 0.062C12.037 3.72529e-08 11.464 0 10.799 0M18.999 20V13.25C18.999 13.0511 18.92 12.8603 18.7793 12.7197C18.6387 12.579 18.4479 12.5 18.249 12.5H15.249C15.0501 12.5 14.8593 12.579 14.7187 12.7197C14.578 12.8603 14.499 13.0511 14.499 13.25V20H18.999ZM12.999 20V3.75C12.999 3.022 12.997 2.55 12.951 2.204C12.907 1.879 12.836 1.777 12.779 1.72C12.722 1.663 12.62 1.592 12.295 1.548C11.948 1.502 11.477 1.5 10.749 1.5C10.021 1.5 9.549 1.502 9.203 1.548C8.878 1.592 8.776 1.663 8.719 1.72C8.662 1.777 8.591 1.879 8.547 2.204C8.501 2.551 8.499 3.022 8.499 3.75V20H12.999ZM6.999 20V8.25C6.999 8.05109 6.91998 7.86032 6.77933 7.71967C6.63868 7.57902 6.44791 7.5 6.249 7.5H3.249C3.05009 7.5 2.85932 7.57902 2.71867 7.71967C2.57802 7.86032 2.499 8.05109 2.499 8.25V20H6.999Z" fill="white"/>
</svg>
