<svg width="22" height="20" viewBox="0 0 22 20" fill="none" xmlns="http://www.w3.org/2000/svg">
<path fill-rule="evenodd" clip-rule="evenodd" d="M14.7635 2.5262C14.6831 2.43323 14.5822 2.3601 14.4689 2.31252C14.3556 2.26493 14.2327 2.24418 14.1101 2.25187C13.9874 2.25957 13.8681 2.29551 13.7616 2.35688C13.6551 2.41826 13.5642 2.50341 13.496 2.6057L13.1495 3.1262L12.341 4.7432C12.077 5.27067 11.6714 5.71429 11.1697 6.02449C10.668 6.33468 10.0899 6.49922 9.5 6.4997H8C7.80109 6.4997 7.61032 6.42068 7.46967 6.28003C7.32902 6.13938 7.25 5.94861 7.25 5.7497C7.25 5.55079 7.32902 5.36002 7.46967 5.21937C7.61032 5.07872 7.80109 4.9997 8 4.9997H9.5C10.1345 4.9997 10.715 4.6427 11 4.0742L11.8295 2.4152L11.8745 2.3357L12.2495 1.7762C12.4457 1.48187 12.7073 1.23682 13.0137 1.06013C13.3202 0.883435 13.6633 0.779878 14.0163 0.757523C14.3693 0.735168 14.7228 0.794618 15.0491 0.931242C15.3754 1.06787 15.6657 1.27797 15.8975 1.5452C16.4225 2.1527 16.688 2.9432 16.6355 3.7442L16.6235 3.9257C16.5684 4.73637 16.4107 5.53677 16.154 6.3077L16.0895 6.4997H18.749C19.2299 6.49933 19.7026 6.62497 20.1198 6.86411C20.5371 7.10325 20.8844 7.44755 21.1272 7.8627C21.37 8.27786 21.4997 8.74938 21.5036 9.23029C21.5074 9.71121 21.3851 10.1847 21.149 10.6037L20.972 10.9187C21.2615 11.9237 20.99 13.0202 20.2355 13.7747L20.093 13.9172C20.462 15.4022 19.718 16.9307 18.3515 17.5682L18.1865 18.0632C17.9982 18.6268 17.6375 19.117 17.1554 19.4645C16.6733 19.812 16.0943 19.9992 15.5 19.9997H14.1185C12.9378 19.9983 11.7734 19.7237 10.7165 19.1972C9.61574 18.6474 8.61125 17.923 7.742 17.0522L7.469 16.7807C7.32817 16.6401 7.24897 16.4493 7.24883 16.2502C7.24869 16.0512 7.32762 15.8603 7.46825 15.7194C7.60888 15.5786 7.7997 15.4994 7.99872 15.4993C8.19774 15.4991 8.38867 15.5781 8.5295 15.7187L8.8025 15.9917C9.55777 16.7482 10.4306 17.3773 11.387 17.8547C12.2352 18.2771 13.1695 18.4979 14.117 18.4997H15.5C15.7793 18.4991 16.0514 18.411 16.278 18.2476C16.5046 18.0843 16.6742 17.854 16.763 17.5892L17.0315 16.7852C17.0705 16.6678 17.1364 16.5611 17.2239 16.4736C17.3113 16.3861 17.4181 16.3202 17.5355 16.2812C18.395 15.9947 18.8735 15.0782 18.617 14.2082L18.539 13.9412C18.4989 13.8027 18.4966 13.6559 18.5322 13.5162C18.5678 13.3764 18.64 13.2487 18.7415 13.1462L19.175 12.7142C19.376 12.5144 19.5114 12.2581 19.5631 11.9794C19.6148 11.7007 19.5804 11.4128 19.4645 11.1542C19.4171 11.0475 19.3952 10.9311 19.4007 10.8145C19.4061 10.6978 19.4388 10.584 19.496 10.4822L19.841 9.8672C19.948 9.67649 20.0032 9.46113 20.0013 9.24247C19.9993 9.02382 19.9402 8.80947 19.8298 8.62071C19.7195 8.43195 19.5616 8.27533 19.372 8.16639C19.1824 8.05746 18.9677 7.99999 18.749 7.9997H15.809C15.6035 7.99984 15.4008 7.9511 15.2179 7.85749C15.0349 7.76389 14.8768 7.6281 14.7566 7.46135C14.6365 7.2946 14.5577 7.10166 14.5268 6.89846C14.4959 6.69526 14.5138 6.48763 14.579 6.2927L14.732 5.8322C14.9478 5.18256 15.0803 4.50818 15.1265 3.8252L15.1385 3.6437C15.1661 3.23628 15.0313 2.83451 14.7635 2.5262ZM5 5.9702C5 5.89064 4.96839 5.81433 4.91213 5.75807C4.85587 5.70181 4.77956 5.6702 4.7 5.6702H2.3C2.22044 5.6702 2.14413 5.70181 2.08787 5.75807C2.03161 5.81433 2 5.89064 2 5.9702V16.0292C2 16.1942 2.135 16.3292 2.3 16.3292H4.7C4.77956 16.3292 4.85587 16.2976 4.91213 16.2413C4.96839 16.1851 5 16.1088 5 16.0292V5.9702ZM2 4.2497C1.172 4.2497 0.5 4.8857 0.5 5.6702V16.3292C0.5 17.1137 1.172 17.7497 2 17.7497H5C5.828 17.7497 6.5 17.1137 6.5 16.3292V5.6702C6.5 4.8857 5.828 4.2497 5 4.2497H2Z" fill="white"/>
</svg>
