<svg width="22" height="22" viewBox="0 0 22 22" fill="none" xmlns="http://www.w3.org/2000/svg">
<path d="M11.828 5.00131C11.9877 4.54886 12.0365 4.06471 11.9704 3.5895C11.9043 3.11428 11.7251 2.66185 11.448 2.27018C11.1709 1.8785 10.8038 1.55901 10.3777 1.33851C9.95159 1.11801 9.4788 1.00293 8.999 1.00293C8.5192 1.00293 8.04641 1.11801 7.62028 1.33851C7.19415 1.55901 6.82713 1.8785 6.55001 2.27018C6.27288 2.66185 6.09375 3.11428 6.02762 3.5895C5.9615 4.06471 6.01033 4.54886 6.17 5.00131C3.885 5.00931 2.666 5.09131 1.878 5.87931C1.09 6.66731 1.008 7.88631 1 10.1703C1.45237 10.0112 1.93629 9.9628 2.41121 10.0292C2.88613 10.0957 3.33819 10.275 3.72952 10.5522C4.12085 10.8294 4.44003 11.1963 4.66031 11.6223C4.88058 12.0482 4.99554 12.5208 4.99554 13.0003C4.99554 13.4799 4.88058 13.9524 4.66031 14.3784C4.44003 14.8043 4.12085 15.1713 3.72952 15.4484C3.33819 15.7256 2.88613 15.9049 2.41121 15.9714C1.93629 16.0378 1.45237 15.9894 1 15.8303C1.008 18.1143 1.09 19.3333 1.878 20.1213C2.666 20.9093 3.885 20.9913 6.169 20.9993C6.00987 20.5469 5.96149 20.063 6.02794 19.5881C6.09438 19.1132 6.2737 18.6611 6.55088 18.2698C6.82805 17.8785 7.19499 17.5593 7.62095 17.339C8.0469 17.1187 8.51946 17.0038 8.999 17.0038C9.47854 17.0038 9.9511 17.1187 10.3771 17.339C10.803 17.5593 11.17 17.8785 11.4471 18.2698C11.7243 18.6611 11.9036 19.1132 11.9701 19.5881C12.0365 20.063 11.9881 20.5469 11.829 20.9993C14.113 20.9913 15.332 20.9093 16.12 20.1213C16.908 19.3333 16.99 18.1143 16.998 15.8293C17.4504 15.989 17.9346 16.0378 18.4098 15.9717C18.885 15.9056 19.3375 15.7264 19.7291 15.4493C20.1208 15.1722 20.4403 14.8052 20.6608 14.379C20.8813 13.9529 20.9964 13.4801 20.9964 13.0003C20.9964 12.5205 20.8813 12.0477 20.6608 11.6216C20.4403 11.1955 20.1208 10.8284 19.7291 10.5513C19.3375 10.2742 18.885 10.0951 18.4098 10.0289C17.9346 9.96281 17.4504 10.0116 16.998 10.1713C16.99 7.88631 16.908 6.66731 16.12 5.87931C15.332 5.09031 14.113 5.00931 11.828 5.00131Z" stroke="white" stroke-width="1.5" stroke-linecap="round" stroke-linejoin="round"/>
</svg>
